<svg version="1.1" id="Layer_1" xmlns="http://www.w3.org/2000/svg" xmlns:xlink="http://www.w3.org/1999/xlink" x="0px" y="0px"
	 width="100%" viewBox="0 0 1280 1280" enable-background="new 0 0 1280 1280" xml:space="preserve">
<path fill="#007EBB" opacity="1.000000" stroke="none" 
	d="
M0.999994,1163.000000 
	C1.000000,815.302429 1.000000,467.604828 1.383966,119.642319 
	C2.108209,119.031494 2.685126,118.727646 2.755105,118.333740 
	C8.825853,84.162506 25.220156,56.067921 51.749397,33.645393 
	C70.603615,17.709808 92.205360,7.947076 116.186913,2.947940 
	C117.215279,2.733570 118.066345,1.668682 119.000000,1.000000 
	C466.697601,1.000000 814.395203,1.000000 1162.371948,1.387362 
	C1162.997192,2.114447 1163.301392,2.690455 1163.695312,2.760288 
	C1197.858521,8.816428 1225.942871,25.216845 1248.335571,51.742630 
	C1264.252319,70.597137 1274.124634,92.162804 1279.052246,116.184845 
	C1279.263184,117.213127 1280.331299,118.065620 1281.000000,119.000000 
	C1281.000000,466.697601 1281.000000,814.395203 1280.612549,1162.371582 
	C1279.885498,1162.996826 1279.307739,1163.302124 1279.240234,1163.695190 
	C1275.225952,1187.079102 1265.816040,1207.935059 1251.188110,1226.705811 
	C1238.288818,1243.258301 1222.592163,1256.207642 1204.155029,1265.859009 
	C1191.797119,1272.328247 1178.614502,1276.690918 1164.817627,1279.087891 
	C1164.121948,1279.208862 1163.601807,1280.339478 1163.000000,1281.000000 
	C815.302429,1281.000000 467.604828,1281.000000 119.630829,1280.615356 
	C119.008812,1279.889404 118.706322,1279.312378 118.311539,1279.239990 
	C84.245941,1273.008057 56.018505,1256.872559 33.650585,1230.261108 
	C17.774385,1211.372925 7.865075,1189.841431 2.946615,1165.817871 
	C2.735956,1164.788818 1.668376,1163.935303 0.999994,1163.000000 
M1028.061279,517.432434 
	C1015.062073,506.348724 1000.851562,497.118286 985.322632,490.012756 
	C942.561462,470.446716 897.590454,464.634979 851.208130,469.917847 
	C791.280457,476.743500 742.964478,504.810760 705.522705,551.861755 
	C701.342041,557.115417 697.626160,562.738892 693.006104,569.145752 
	C693.006104,541.145996 693.006104,514.266052 693.006104,487.255402 
	C631.819153,487.255402 571.095947,487.255402 510.299805,487.255402 
	C510.299805,692.614624 510.299805,897.681763 510.299805,1102.793335 
	C571.304810,1102.793335 632.025513,1102.793335 693.050049,1102.793335 
	C693.050049,1100.488037 693.050049,1098.512329 693.050049,1096.536621 
	C693.050232,991.707214 693.064880,886.877808 693.036133,782.048401 
	C693.031433,764.837585 694.251160,747.747803 698.111633,730.949829 
	C704.271606,704.146545 715.754211,680.358704 738.092163,663.108765 
	C758.626221,647.251770 782.505676,641.859619 807.880249,641.447388 
	C856.548950,640.656799 889.647217,664.637146 904.152039,711.082764 
	C911.487488,734.571472 913.232605,758.719055 913.218323,783.139954 
	C913.157227,887.636047 913.192566,992.132080 913.192688,1096.628174 
	C913.192688,1098.708252 913.192627,1100.788330 913.192627,1102.826904 
	C976.913635,1102.826904 1039.837402,1102.826904 1103.144043,1102.826904 
	C1103.144043,1101.064819 1103.144043,1099.598145 1103.144043,1098.131470 
	C1103.143066,970.136292 1103.119751,842.141113 1103.157104,714.145935 
	C1103.166138,683.027405 1100.157227,652.293274 1091.858276,622.218567 
	C1080.619629,581.490479 1060.900513,545.869324 1028.061279,517.432434 
M197.076477,962.500000 
	C197.076477,1009.266846 197.076477,1056.033691 197.076477,1102.897461 
	C260.990997,1102.897461 324.254578,1102.897461 387.608612,1102.897461 
	C387.608612,897.478333 387.608612,692.287476 387.608612,487.280212 
	C323.953094,487.280212 260.691406,487.280212 197.076477,487.280212 
	C197.076477,645.564392 197.076477,803.532166 197.076477,962.500000 
M313.447174,404.051086 
	C315.873505,403.483612 318.321259,402.994476 320.723022,402.337250 
	C376.693359,387.020355 411.227600,333.782532 403.139008,275.312805 
	C394.586578,213.489670 334.389587,169.454971 273.179047,180.245804 
	C206.052811,192.079514 164.427139,258.788971 183.245804,324.373108 
	C199.291168,380.292175 257.449677,416.170197 313.447174,404.051086 
z"/>
<path fill="#000000" opacity="1.000000" stroke="none" 
	d="
M0.999994,1163.468628 
	C1.668376,1163.935303 2.735956,1164.788818 2.946615,1165.817871 
	C7.865075,1189.841431 17.774385,1211.372925 33.650585,1230.261108 
	C56.018505,1256.872559 84.245941,1273.008057 118.311539,1279.239990 
	C118.706322,1279.312378 119.008812,1279.889404 119.177200,1280.615356 
	C79.739693,1281.000000 40.479389,1281.000000 1.000000,1281.000000 
	C1.000000,1241.979370 1.000000,1202.958252 0.999994,1163.468628 
z"/>
<path fill="#000000" opacity="1.000000" stroke="none" 
	d="
M1163.468628,1281.000000 
	C1163.601807,1280.339478 1164.121948,1279.208862 1164.817627,1279.087891 
	C1178.614502,1276.690918 1191.797119,1272.328247 1204.155029,1265.859009 
	C1222.592163,1256.207642 1238.288818,1243.258301 1251.188110,1226.705811 
	C1265.816040,1207.935059 1275.225952,1187.079102 1279.240234,1163.695190 
	C1279.307739,1163.302124 1279.885498,1162.996826 1280.612549,1162.825195 
	C1281.000000,1202.260254 1281.000000,1241.520630 1281.000000,1281.000000 
	C1241.979370,1281.000000 1202.958252,1281.000000 1163.468628,1281.000000 
z"/>
<path fill="#000000" opacity="1.000000" stroke="none" 
	d="
M118.531342,1.000000 
	C118.066345,1.668682 117.215279,2.733570 116.186913,2.947940 
	C92.205360,7.947076 70.603615,17.709808 51.749397,33.645393 
	C25.220156,56.067921 8.825853,84.162506 2.755105,118.333740 
	C2.685126,118.727646 2.108209,119.031494 1.383966,119.188690 
	C1.000000,79.739700 1.000000,40.479408 1.000000,1.000000 
	C40.020622,1.000000 79.041649,1.000000 118.531342,1.000000 
z"/>
<path fill="#000000" opacity="1.000000" stroke="none" 
	d="
M1281.000000,118.531342 
	C1280.331299,118.065620 1279.263184,117.213127 1279.052246,116.184845 
	C1274.124634,92.162804 1264.252319,70.597137 1248.335571,51.742630 
	C1225.942871,25.216845 1197.858521,8.816428 1163.695312,2.760288 
	C1163.301392,2.690455 1162.997192,2.114447 1162.825562,1.387362 
	C1202.260254,1.000000 1241.520630,1.000000 1281.000000,1.000000 
	C1281.000000,40.020622 1281.000000,79.041649 1281.000000,118.531342 
z"/>
<path fill="#FFFFFF" opacity="1.000000" stroke="none" 
	d="
M1028.329956,517.664429 
	C1060.900513,545.869324 1080.619629,581.490479 1091.858276,622.218567 
	C1100.157227,652.293274 1103.166138,683.027405 1103.157104,714.145935 
	C1103.119751,842.141113 1103.143066,970.136292 1103.144043,1098.131470 
	C1103.144043,1099.598145 1103.144043,1101.064819 1103.144043,1102.826904 
	C1039.837402,1102.826904 976.913635,1102.826904 913.192627,1102.826904 
	C913.192627,1100.788330 913.192688,1098.708252 913.192688,1096.628174 
	C913.192566,992.132080 913.157227,887.636047 913.218323,783.139954 
	C913.232605,758.719055 911.487488,734.571472 904.152039,711.082764 
	C889.647217,664.637146 856.548950,640.656799 807.880249,641.447388 
	C782.505676,641.859619 758.626221,647.251770 738.092163,663.108765 
	C715.754211,680.358704 704.271606,704.146545 698.111633,730.949829 
	C694.251160,747.747803 693.031433,764.837585 693.036133,782.048401 
	C693.064880,886.877808 693.050232,991.707214 693.050049,1096.536621 
	C693.050049,1098.512329 693.050049,1100.488037 693.050049,1102.793335 
	C632.025513,1102.793335 571.304810,1102.793335 510.299805,1102.793335 
	C510.299805,897.681763 510.299805,692.614624 510.299805,487.255402 
	C571.095947,487.255402 631.819153,487.255402 693.006104,487.255402 
	C693.006104,514.266052 693.006104,541.145996 693.006104,569.145752 
	C697.626160,562.738892 701.342041,557.115417 705.522705,551.861755 
	C742.964478,504.810760 791.280457,476.743500 851.208130,469.917847 
	C897.590454,464.634979 942.561462,470.446716 985.322632,490.012756 
	C1000.851562,497.118286 1015.062073,506.348724 1028.329956,517.664429 
z"/>
<path fill="#FFFFFF" opacity="1.000000" stroke="none" 
	d="
M197.076477,962.000000 
	C197.076477,803.532166 197.076477,645.564392 197.076477,487.280212 
	C260.691406,487.280212 323.953094,487.280212 387.608612,487.280212 
	C387.608612,692.287476 387.608612,897.478333 387.608612,1102.897461 
	C324.254578,1102.897461 260.990997,1102.897461 197.076477,1102.897461 
	C197.076477,1056.033691 197.076477,1009.266846 197.076477,962.000000 
z"/>
<path fill="#FEFFFF" opacity="1.000000" stroke="none" 
	d="
M313.023071,404.111145 
	C257.449677,416.170197 199.291168,380.292175 183.245804,324.373108 
	C164.427139,258.788971 206.052811,192.079514 273.179047,180.245804 
	C334.389587,169.454971 394.586578,213.489670 403.139008,275.312805 
	C411.227600,333.782532 376.693359,387.020355 320.723022,402.337250 
	C318.321259,402.994476 315.873505,403.483612 313.023071,404.111145 
z"/>
</svg>